PathFileType	4	(X/Y/Z)	SUBJ36_0_static_RCNL2025.trc
DataRate	CameraRate	NumFrames	NumMarkers	Units	OrigDataRate	OrigDataStartFrame	OrigNumFrames
100	100	7	25	mm	100	1	143
Frame#	Time	R_Shoulder			L_Shoulder			C7			J_Notch			R_Elbow			L_Elbow			R_Wrist			L_Wrist			R_Asis			L_Asis			Sacral			Thoracic			Sternum			R_Thigh_Lateral			R_Knee_Lateral			R_Shank_Lateral			R_Ankle_Lateral			R_Heel			R_Toe			L_Thigh_Lateral			L_Knee_Lateral			L_Shank_Lateral			L_Ankle_Lateral			L_Heel			L_Toe		
		X1	Y1	Z1	X2	Y2	Z2	X3	Y3	Z3	X4	Y4	Z4	X5	Y5	Z5	X6	Y6	Z6	X7	Y7	Z7	X8	Y8	Z8	X9	Y9	Z9	X10	Y10	Z10	X11	Y11	Z11	X12	Y12	Z12	X13	Y13	Z13	X14	Y14	Z14	X15	Y15	Z15	X16	Y16	Z16	X17	Y17	Z17	X18	Y18	Z18	X19	Y19	Z19	X20	Y20	Z20	X21	Y21	Z21	X22	Y22	Z22	X23	Y23	Z23	X24	Y24	Z24	X25	Y25	Z25
1	0.00000000	-313.654358	1362.187622	-73.826180	-332.195038	1345.403076	-417.787109	-392.997986	1416.666138	-229.946960	-252.242844	1317.305298	-239.797302	-333.413116	1055.029175	43.369656	-344.853485	1040.803711	-505.688629	-255.874664	830.070709	55.375197	-230.015495	836.963043	-511.216187	-225.779434	925.351685	-115.551071	-214.636597	921.102844	-345.371429	-439.449890	907.721313	-235.191315	-449.664032	1148.944092	-234.503876	-206.872467	1140.066895	-236.181381	-350.297363	513.208923	-64.179741	-355.763916	452.244598	-113.304077	-397.379791	244.679504	-71.765800	-351.449585	99.939224	-119.563705	-455.981079	49.230049	-185.479538	-285.957855	50.600342	-165.926712	-331.034058	527.824280	-426.833466	-348.687714	453.242157	-353.064453	-384.709137	242.311722	-389.683868	-399.941132	75.777481	-311.859222	-442.396973	46.378353	-261.491699	-271.818146	48.482006	-280.957764
2	0.01000000	-313.727661	1362.182495	-73.863647	-332.174957	1345.341187	-417.822327	-393.003204	1416.637207	-229.959808	-252.085922	1317.379883	-239.738266	-333.453033	1055.061157	43.403446	-344.836914	1040.860840	-505.849457	-255.894394	830.027039	55.319910	-230.148315	836.870087	-511.347916	-225.796478	925.364929	-115.658508	-214.627823	921.081848	-345.388031	-439.451538	907.734192	-235.187866	-449.650391	1149.009766	-234.529099	-206.871246	1140.081177	-236.182587	-350.325592	513.216187	-64.281578	-355.839661	452.234161	-113.377945	-397.394012	244.672501	-71.848328	-351.080139	99.642036	-119.905540	-456.057159	49.255939	-185.554199	-286.048828	50.661030	-165.994186	-331.137726	527.810974	-426.771545	-348.811035	453.162384	-353.012848	-384.733002	242.325684	-389.643524	-399.889954	75.866714	-311.956421	-442.395844	46.339581	-261.481476	-271.834961	48.410587	-280.984802
3	0.02000000	-313.714569	1362.180908	-73.882950	-332.062347	1345.407593	-417.868286	-392.453308	1416.200195	-228.942413	-252.073761	1317.354370	-239.743057	-333.566071	1055.096558	43.352306	-344.870453	1040.850952	-505.917236	-255.857300	830.044739	55.376752	-230.200920	836.841339	-511.419952	-225.796097	925.375061	-115.654823	-214.634811	921.101257	-345.373932	-439.450439	907.722107	-235.190903	-449.680023	1148.972046	-234.636047	-206.876297	1140.037231	-236.141617	-350.302063	513.181580	-64.288811	-355.881073	452.272675	-113.336891	-397.457336	244.679199	-71.808243	-351.175964	99.716499	-119.792816	-455.951477	49.170994	-185.526184	-288.741669	49.795086	-166.559204	-331.058838	527.808350	-426.880768	-346.253387	454.075562	-354.024597	-384.846375	242.345093	-389.630554	-399.931396	75.856285	-311.926849	-442.333130	46.379963	-261.541290	-271.917297	48.399017	-280.975586
4	0.03000000	-313.730988	1362.110107	-73.881767	-332.061310	1345.374512	-417.865814	-392.419220	1416.212646	-228.904312	-252.060837	1317.382080	-239.773422	-333.550354	1055.099121	43.341583	-344.851868	1040.880615	-505.936005	-255.886162	830.089478	55.321301	-230.199532	836.982330	-511.439865	-225.809860	925.329224	-115.606499	-214.622833	921.105774	-345.367828	-439.449707	907.721008	-235.191483	-449.664032	1148.959106	-234.665375	-206.808228	1140.093750	-236.224838	-350.315460	513.208435	-64.290932	-355.929474	452.198822	-113.316322	-397.515503	244.644989	-71.741554	-351.186554	99.606461	-119.832649	-455.930969	49.154980	-185.524368	-289.107605	49.741608	-166.466461	-331.103851	527.768921	-426.847839	-345.932312	454.167969	-354.146637	-384.878326	242.303223	-389.620605	-399.940765	75.822235	-311.884827	-442.377472	46.304321	-261.507416	-271.921997	48.397537	-280.955627
5	0.04000000	-313.840393	1362.112305	-73.928268	-332.055511	1345.392700	-417.847565	-392.440155	1416.199951	-228.915161	-252.158493	1317.435181	-239.838669	-333.561737	1054.990723	43.361904	-344.905884	1040.857056	-505.959351	-255.924988	830.036255	55.301215	-230.288200	836.863922	-511.520599	-225.821869	925.346191	-115.589867	-214.642227	921.091492	-345.333466	-439.449829	907.721252	-235.191360	-449.693787	1149.006836	-234.629257	-206.780136	1140.109497	-236.248596	-350.345856	513.147644	-64.269890	-355.932617	452.203186	-113.294167	-397.528778	244.663818	-71.723297	-351.224731	99.618042	-119.795815	-455.960846	49.091000	-185.489838	-289.007141	49.753086	-166.479980	-331.084961	527.779419	-426.845795	-346.045685	454.121307	-354.089783	-384.825836	242.268387	-389.721161	-399.947968	75.795074	-311.851959	-442.393250	46.335007	-261.479523	-271.895660	48.440823	-281.063080
6	0.05000000	-313.809814	1362.100830	-73.952560	-332.024078	1345.399536	-417.863647	-392.456085	1416.142334	-228.892197	-252.067001	1317.419678	-239.807343	-333.594574	1055.032471	43.369839	-345.015381	1040.881104	-505.914490	-255.951813	830.067444	55.429028	-230.371864	836.828125	-511.559113	-225.868591	925.340393	-115.558273	-214.634506	921.096069	-345.381073	-439.451294	907.733826	-235.188080	-449.713074	1148.957275	-234.598114	-206.850937	1140.105225	-236.172318	-350.396210	513.198547	-64.219444	-355.994934	452.168060	-113.265091	-397.490662	244.658371	-71.757759	-351.246887	99.638260	-119.776497	-455.966095	49.103943	-185.481842	-288.945831	49.731392	-166.508331	-331.009338	527.814636	-426.904480	-346.113647	454.115112	-354.025238	-384.892822	242.315628	-389.678528	-399.950287	75.801338	-311.842224	-442.392548	46.342552	-261.473694	-271.885101	48.425865	-280.988464
7	0.06000000	-313.782288	1362.073975	-73.971008	-332.028748	1345.372925	-417.891541	-392.509827	1416.207275	-228.986282	-252.151764	1317.436157	-239.838547	-333.593018	1054.967285	43.264252	-344.956696	1040.899536	-505.963470	-255.968323	830.093323	55.320231	-230.506721	836.837372	-511.568909	-225.972015	925.328979	-115.649895	-214.641281	921.094604	-345.366730	-439.517120	907.746521	-235.258102	-449.688324	1149.015747	-234.738846	-207.016876	1139.993530	-236.253006	-350.401001	513.202393	-64.228806	-356.063354	452.193512	-113.206474	-397.581451	244.579910	-71.591316	-351.344086	99.721649	-119.677406	-455.966919	49.107883	-185.482346	-288.957764	49.736488	-166.494644	-331.035614	527.803589	-426.851288	-346.044586	454.141327	-354.068390	-384.910950	242.334000	-389.658173	-399.916321	75.804054	-311.898041	-442.401978	46.325451	-261.490936	-271.955750	48.428501	-281.013947
